<mxfile host="app.diagrams.net" agent="Mozilla/5.0 (Windows NT 10.0; Win64; x64) AppleWebKit/537.36 (KHTML, like Gecko) Chrome/138.0.0.0 Safari/537.36 Edg/138.0.0.0" version="28.0.7">
  <diagram name="Page-1" id="hbwrVl3ueQLO0jt4X5lI">
    <mxGraphModel dx="1034" dy="570" grid="1" gridSize="10" guides="1" tooltips="1" connect="1" arrows="1" fold="1" page="1" pageScale="1" pageWidth="850" pageHeight="1100" math="0" shadow="0">
      <root>
        <mxCell id="0" />
        <mxCell id="1" parent="0" />
        <mxCell id="XimXgIEPHGc9YV49jyJd-1" value="SUPER ADMIN" style="rounded=0;whiteSpace=wrap;html=1;" vertex="1" parent="1">
          <mxGeometry x="90" y="180" width="120" height="60" as="geometry" />
        </mxCell>
        <mxCell id="XimXgIEPHGc9YV49jyJd-2" value="ADMINISTRATOR TENANT" style="rounded=0;whiteSpace=wrap;html=1;" vertex="1" parent="1">
          <mxGeometry x="370" y="180" width="120" height="60" as="geometry" />
        </mxCell>
        <mxCell id="XimXgIEPHGc9YV49jyJd-3" value="CUSTOM USER" style="rounded=0;whiteSpace=wrap;html=1;" vertex="1" parent="1">
          <mxGeometry x="670" y="180" width="120" height="60" as="geometry" />
        </mxCell>
        <mxCell id="XimXgIEPHGc9YV49jyJd-4" value="Untuk memiliki seluruh akses pada aplikasi" style="text;html=1;align=center;verticalAlign=middle;whiteSpace=wrap;rounded=0;" vertex="1" parent="1">
          <mxGeometry x="105" y="270" width="90" height="90" as="geometry" />
        </mxCell>
        <mxCell id="XimXgIEPHGc9YV49jyJd-5" value="Untuk memiliki seluruh akses kecuali management tenant" style="text;html=1;align=center;verticalAlign=middle;whiteSpace=wrap;rounded=0;" vertex="1" parent="1">
          <mxGeometry x="370" y="305" width="120" height="20" as="geometry" />
        </mxCell>
        <mxCell id="XimXgIEPHGc9YV49jyJd-6" value="Boleh di custom akses apapun tapi tidak akan pernah memiliki akses management tenant dan management level pengguna" style="text;html=1;align=center;verticalAlign=middle;whiteSpace=wrap;rounded=0;" vertex="1" parent="1">
          <mxGeometry x="660" y="310" width="140" height="30" as="geometry" />
        </mxCell>
        <mxCell id="XimXgIEPHGc9YV49jyJd-7" value="&lt;font style=&quot;font-size: 36px;&quot;&gt;JENIS USER&lt;/font&gt;" style="text;html=1;align=center;verticalAlign=middle;whiteSpace=wrap;rounded=0;" vertex="1" parent="1">
          <mxGeometry x="320" y="30" width="220" height="70" as="geometry" />
        </mxCell>
        <mxCell id="XimXgIEPHGc9YV49jyJd-8" value="&lt;span style=&quot;font-size: 36px;&quot;&gt;ROLE BAWAAN DATABASE FRESH&lt;/span&gt;" style="text;html=1;align=center;verticalAlign=middle;whiteSpace=wrap;rounded=0;" vertex="1" parent="1">
          <mxGeometry x="190" y="550" width="480" height="70" as="geometry" />
        </mxCell>
        <mxCell id="XimXgIEPHGc9YV49jyJd-10" value="ROLE SUPER ADMIN" style="ellipse;whiteSpace=wrap;html=1;" vertex="1" parent="1">
          <mxGeometry x="190" y="680" width="120" height="80" as="geometry" />
        </mxCell>
        <mxCell id="XimXgIEPHGc9YV49jyJd-11" value="ROLE ADMINISTRATOR&lt;div&gt;TENANT&lt;/div&gt;" style="ellipse;whiteSpace=wrap;html=1;" vertex="1" parent="1">
          <mxGeometry x="580" y="680" width="120" height="80" as="geometry" />
        </mxCell>
      </root>
    </mxGraphModel>
  </diagram>
</mxfile>
